{"title":"A.Dinner.Of.Herbs.DVDRip.x264.Iou1","uid":11599911,"size":2921377504,"categoryP":"video","categoryS":"movies","magnet":"?xt=urn:btih:dc052fc65357e4e4e187950300f7a6d6dc7c5a58&amp;dn=A.Dinner.Of.Herbs.DVDRip.x264.Iou1&amp;tr=udp%3A%2F%2Ftracker.openbittorrent.com%3A80&amp;tr=udp%3A%2F%2Fopen.demonii.com%3A1337&amp;tr=udp%3A%2F%2Ftracker.coppersurfer.tk%3A6969&amp;tr=udp%3A%2F%2Fexodus.desync.com%3A6969","seeders":1,"leechers":0,"uploader":"jaybee211","files":-1,"time":1417329644,"description":"The Catherine Cookson Collection Birth, Death, Love And Marriage\n\nList Of Movies\nA.Dinner.Of.Herbs.DVDRip.x264.Iou1 6 Parts\nThe.Man.Who.Cried.DVDRip.x264.Iou1 2 Parts\nColour.Blind.DVDRip.x264.Iou1\nThe.Cinder.Path.DVDRip.x264.Iou1\nThe.Gambling.Man.DVDRip.x264.Iou1\nThe.Round.Tower.DVDRip.x264.Iou1\nThe.Tide.Of.Life.DVDRip.x264.Iou1\n\nNote. Will up the 2 Series And The Movies Individually,\nJust Takes To Long To Seed.\n\nA.Dinner.Of.Herbs.DVDRip.x264.Iou1\nGenre                                    : Drama\nFormat                                   : MPEG-4\nFormat profile                           : Base Media / Version 2\nCodec ID                                 : mp42\nFiles                                    : 6\nFile size                                : 2.72 GiB\nDuration                                 : 4h 46mn 37s\nOverall bit rate mode                    : Variable\nOverall bit rate                         : 1 357 Kbps\n\nVideo\nID                                       : 1\nFormat                                   : AVC\nFormat/Info                              : Advanced Video Codec\nFormat profile                           : &lt;a class=&quot;__cf_email__&quot; href=&quot;/cdn-cgi/l/email-protection&quot; data-cfemail=&quot;0a42636d624a4639243a&quot;&gt;[email&amp;#160;protected]&lt;/a&gt;&lt;script cf-hash='f9e31' type=&quot;text/javascript&quot;&gt;\n/* &lt;![CDATA[ */!function(){try{var t=&quot;currentScript&quot;in document?document.currentScript:function(){for(var t=document.getElementsByTagName(&quot;script&quot;),e=t.length;e--;)if(t[e].getAttribute(&quot;cf-hash&quot;))return t[e]}();if(t&amp;&amp;t.previousSibling){var e,r,n,i,c=t.previousSibling,a=c.getAttribute(&quot;data-cfemail&quot;);if(a){for(e=&quot;&quot;,r=parseInt(a.substr(0,2),16),n=2;a.length-n;n+=2)i=parseInt(a.substr(n,2),16)^r,e+=String.fromCharCode(i);e=document.createTextNode(e),c.parentNode.replaceChild(e,c)}}}catch(u){}}();/* ]]&gt; */&lt;/script&gt;\nFormat settings, CABAC                   : Yes\nFormat settings, ReFrames                : 4 frames\nCodec ID                                 : avc1\nCodec ID/Info                            : Advanced Video Coding\nDuration                                 : 4h 46mn 37s\nBit rate                                 : 1 252 Kbps\nMaximum bit rate                         : 4 052 Kbps\nWidth                                    : 720 pixels\nHeight                                   : 428 pixels\nDisplay aspect ratio                     : 1.85:1\nFrame rate mode                          : Constant\nFrame rate                               : 25.000 fps\nStandard                                 : PAL\nColor space                              : YUV\nChroma subsampling                       : 4:2:0\nBit depth                                : 8 bits\nScan type                                : Progressive\nBits/(Pixel*Frame)                       : 0.163\nStream size                              : 2.50 GiB (92%)\n\nAudio\nID                                       : 2\nFormat                                   : AAC\nFormat/Info                              : Advanced Audio Codec\nFormat profile                           : LC\nCodec ID                                 : 40\nDuration                                 : 4h 46mn 37s\nBit rate mode                            : Variable\nBit rate                                 : 93.8 Kbps\nMaximum bit rate                         : 103 Kbps\nChannel(s)                               : 2 channels\nChannel positions                        : Front: L R\nSampling rate                            : 48.0 KHz\nCompression mode                         : Lossy\nStream size                              : 220 MiB (8%)\nTitle                                    : English\nSubtitles                                : English\nHardcoded                                : No\n\nScreens. &lt;a href=&quot; http://bayimg.com/FAHPPaaGi&quot; rel=&quot;nofollow&quot; target=&quot;_NEW&quot;&gt; http://bayimg.com/FAHPPaaGi&lt;/a&gt;\n\n         &lt;a href=&quot; http://bayimg.com/gaHpaAAGi&quot; rel=&quot;nofollow&quot; target=&quot;_NEW&quot;&gt; http://bayimg.com/gaHpaAAGi&lt;/a&gt;\n\n         &lt;a href=&quot; http://bayimg.com/gAhPgaAgI&quot; rel=&quot;nofollow&quot; target=&quot;_NEW&quot;&gt; http://bayimg.com/gAhPgaAgI&lt;/a&gt;\n\n         &lt;a href=&quot; http://bayimg.com/GAhPHaAgi&quot; rel=&quot;nofollow&quot; target=&quot;_NEW&quot;&gt; http://bayimg.com/GAhPHaAgi&lt;/a&gt;\n\n         &lt;a href=&quot; http://bayimg.com/gahPiaAgi&quot; rel=&quot;nofollow&quot; target=&quot;_NEW&quot;&gt; http://bayimg.com/gahPiaAgi&lt;/a&gt;\n\n         &lt;a href=&quot; http://bayimg.com/GAHpJAAGI&quot; rel=&quot;nofollow&quot; target=&quot;_NEW&quot;&gt; http://bayimg.com/GAHpJAAGI&lt;/a&gt;\n\nIMDB. &lt;a href=&quot; http://www.imdb.com/title/tt0269157/&quot; rel=&quot;nofollow&quot; target=&quot;_NEW&quot;&gt; http://www.imdb.com/title/tt0269157/&lt;/a&gt;\n\nStoryline.\nA legacy of love, hate, betrayal and revenge that spans three generations and nearly half a century. Catherine Cookson's epic novel is brought to the screen in a sweeping miniseries.\n\nEnjoy","torrent":{"xt":"urn:btih:dc052fc65357e4e4e187950300f7a6d6dc7c5a58","amp;dn":"A.Dinner.Of.Herbs.DVDRip.x264.Iou1","amp;tr":["udp%3A%2F%2Ftracker.openbittorrent.com%3A80","udp%3A%2F%2Fopen.demonii.com%3A1337","udp%3A%2F%2Ftracker.coppersurfer.tk%3A6969","udp%3A%2F%2Fexodus.desync.com%3A6969"],"infoHash":"dc052fc65357e4e4e187950300f7a6d6dc7c5a58","infoHashBuffer":{"type":"Buffer","data":[220,5,47,198,83,87,228,228,225,135,149,3,0,247,166,214,220,124,90,88]},"announce":[],"urlList":[]}}